<svg width="624" height="361" viewBox="0 0 624 361" fill="none" xmlns="http://www.w3.org/2000/svg">
<g clip-path="url(#clip0_115_48)">
<path d="M532.177 217.232C532.177 217.232 539.337 183.373 558.084 175.881C578.23 167.833 580.7 187.04 560.342 202.435C546.374 212.987 532.177 217.232 532.177 217.232Z" fill="#7F784B"/>
<path d="M510.637 247.911C510.637 247.911 491.364 219.164 499.079 200.503C507.355 180.449 522.841 192.076 519.683 217.42C517.495 234.765 510.637 247.911 510.637 247.911Z" fill="#7F784B"/>
<path d="M500.867 267.612C500.867 267.612 535.224 271.808 548.384 256.508C562.542 240.058 545.153 231.498 523.994 245.767C509.477 255.539 500.867 267.612 500.867 267.612Z" fill="#7F784B"/>
<path d="M495.212 282.542C495.212 282.542 465.635 264.546 464.786 244.386C463.875 222.697 482.818 226.767 490.591 251.075C495.903 267.741 495.212 282.542 495.212 282.542Z" fill="#7F784B"/>
<path d="M551.577 193.677C536.21 209.42 522.038 226.408 510.768 245.344C499.681 263.987 491.656 284.245 485.977 305.154C484.478 310.636 483.146 316.177 481.937 321.717L484.295 321.685C487.553 306.953 491.661 292.396 497.183 278.337C504.845 258.787 515.338 240.504 528.128 223.885C535.876 213.831 544.335 204.366 553.213 195.29C554.253 194.2 552.618 192.608 551.577 193.677Z" fill="#49421F"/>
<path d="M209.473 233.487L60.338 235.482C59.6347 235.492 59.0478 234.92 59.0384 234.217L56.0306 9.41842C56.0212 8.71515 56.5926 8.12824 57.2959 8.11883L206.431 6.12338C207.134 6.11397 207.721 6.68539 207.73 7.38866L210.738 232.187C210.748 232.891 210.176 233.477 209.473 233.487ZM61.5859 232.88L208.156 230.918L205.183 8.7261L58.6129 10.6872L61.5859 232.88Z" fill="#C2AC96"/>
<path d="M205.858 39.0873L57.7159 41.0694C57.0127 41.0789 56.4257 40.5074 56.4163 39.8042C56.4069 39.1009 56.9783 38.514 57.6816 38.5046L205.824 36.5224C206.527 36.513 207.114 37.0844 207.123 37.7877C207.133 38.491 206.582 39.0776 205.858 39.0873Z" fill="#C2AC96"/>
<path d="M132.829 233.933C132.126 233.943 131.539 233.371 131.53 232.668L128.936 38.834C128.927 38.1307 129.498 37.5438 130.201 37.5344C130.905 37.5249 131.492 38.0964 131.501 38.7996L134.094 232.634C134.125 233.337 133.553 233.924 132.829 233.933Z" fill="#C2AC96"/>
<path d="M517.321 153.711L292.522 156.719C291.819 156.728 291.232 156.157 291.223 155.454L289.227 6.29806C289.218 5.59479 289.789 5.00788 290.492 4.99847L515.27 1.99091C515.974 1.9815 516.56 2.55291 516.57 3.25618L518.565 152.391C518.596 153.115 518.024 153.702 517.321 153.711ZM293.791 154.116L516.004 151.143L514.043 4.59335L291.83 7.56659L293.791 154.116Z" fill="#C2AC96"/>
<path d="M515.138 35.4041L290.939 38.4039C290.236 38.4133 289.649 37.8419 289.64 37.1386C289.63 36.4354 290.202 35.8485 290.905 35.839L515.104 32.8392C515.807 32.8298 516.394 33.4012 516.403 34.1045C516.413 34.8078 515.862 35.3944 515.138 35.4041Z" fill="#C2AC96"/>
<path d="M402.109 155.253C401.405 155.262 400.818 154.691 400.809 153.988L399.226 35.6518C399.216 34.9486 399.788 34.3616 400.491 34.3522C401.194 34.3428 401.781 34.9142 401.791 35.6175L403.374 153.953C403.404 154.656 402.833 155.243 402.109 155.253Z" fill="#C2AC96"/>
<path d="M543.203 115.071C542.499 115.08 541.912 114.509 541.903 113.806L541.657 95.438C541.648 94.7347 542.219 94.1478 542.923 94.1384C543.626 94.1289 544.213 94.7004 544.222 95.4036L544.468 113.771C544.498 114.474 543.927 115.061 543.203 115.071Z" fill="#C2AC96"/>
<path d="M591.063 135.884C590.36 135.894 589.773 135.322 589.764 134.619L589.518 116.251C589.508 115.548 590.08 114.961 590.783 114.952C591.486 114.942 592.073 115.514 592.083 116.217L592.329 134.585C592.338 135.288 591.767 135.875 591.063 135.884Z" fill="#C2AC96"/>
<path d="M619.197 115.606L526.551 116.846C525.848 116.855 525.261 116.284 525.252 115.58C525.242 114.877 525.814 114.29 526.517 114.281L619.162 113.041C619.866 113.032 620.453 113.603 620.462 114.306C620.492 115.009 619.921 115.596 619.197 115.606Z" fill="#C2AC96"/>
<path d="M618.242 135.521L551.949 136.408C551.246 136.417 550.659 135.846 550.649 135.142C550.64 134.439 551.211 133.852 551.915 133.843L618.208 132.956C618.911 132.946 619.498 133.518 619.508 134.221C619.517 134.924 618.946 135.511 618.242 135.521Z" fill="#C2AC96"/>
<path d="M468.804 206.039C468.101 206.049 467.514 205.477 467.504 204.774L467.259 186.406C467.249 185.703 467.821 185.116 468.524 185.107C469.227 185.097 469.814 185.669 469.823 186.372L470.069 204.74C470.099 205.443 469.528 206.03 468.804 206.039Z" fill="#C2AC96"/>
<path d="M421.537 228.125C420.834 228.134 420.247 227.563 420.238 226.86L419.992 208.492C419.982 207.789 420.554 207.202 421.257 207.192C421.96 207.183 422.547 207.754 422.557 208.458L422.802 226.825C422.833 227.528 422.261 228.115 421.537 228.125Z" fill="#C2AC96"/>
<path d="M485.517 207.367L392.871 208.607C392.168 208.616 391.581 208.045 391.572 207.342C391.562 206.638 392.134 206.051 392.837 206.042L485.483 204.802C486.186 204.793 486.773 205.364 486.782 206.068C486.792 206.771 486.22 207.358 485.517 207.367Z" fill="#C2AC96"/>
<path d="M460.651 227.602L394.358 228.489C393.654 228.499 393.068 227.927 393.058 227.224C393.049 226.521 393.62 225.934 394.323 225.924L460.617 225.037C461.32 225.028 461.907 225.599 461.917 226.303C461.947 227.006 461.375 227.592 460.651 227.602Z" fill="#C2AC96"/>
<path d="M595.052 333.527C595.192 343.993 463.091 354.243 300.015 356.425C136.918 358.607 4.58935 351.895 4.44931 341.429C4.30927 330.963 136.411 320.713 299.487 318.531C462.584 316.349 594.912 323.06 595.052 333.527Z" fill="#A5410F"/>
<path d="M542.579 332.905C542.654 338.51 437.493 344.448 307.677 346.185C177.862 347.922 72.5793 344.8 72.5043 339.194C72.4293 333.589 177.59 327.651 307.406 325.914C437.222 324.177 542.504 327.299 542.579 332.905Z" fill="#731F07"/>
<path d="M489.493 311.272L510.781 320.545L525.003 301.094L504.589 292.203L489.493 311.272Z" fill="#E8A36F"/>
<path d="M581.286 303.506C572.085 311.594 552.143 316.309 546.589 324.886C541.035 333.463 531.641 337.996 525.724 333.337C522.985 331.181 517.735 326.886 512.494 323.294C512.118 323.03 511.742 322.787 511.346 322.523C509.739 321.449 508.153 320.477 506.653 319.669C506.382 319.528 506.111 319.366 505.84 319.246C505.715 319.185 505.57 319.125 505.445 319.065C502.282 317.68 498.028 318.254 499.934 315.373C504.455 308.506 510.963 297.02 513.911 296.257C515.128 295.951 517.14 296.379 519.571 297.153C520.008 297.292 520.465 297.452 520.922 297.611C522.211 298.069 523.583 298.589 524.977 299.15C525.393 299.31 525.83 299.49 526.267 299.67C531.217 301.652 536.313 303.715 539.21 303.738C545.106 303.763 553.356 301.894 557.585 299.417C562.819 296.347 576.976 290.634 579.466 289.587C584.053 287.643 590.488 295.397 581.286 303.506Z" fill="white"/>
<path d="M520.902 297.611C515.762 304.714 511.02 312.08 506.653 319.669C506.382 319.528 506.111 319.366 505.84 319.246C505.715 319.185 505.57 319.125 505.445 319.065C509.771 311.518 514.494 304.214 519.571 297.153C519.987 297.293 520.444 297.452 520.902 297.611Z" fill="#C2AC96"/>
<path d="M526.246 299.671C521.467 307.451 516.876 315.312 512.473 323.294C512.097 323.031 511.721 322.787 511.325 322.524C515.688 314.625 520.238 306.826 524.956 299.15C525.393 299.33 525.829 299.49 526.246 299.671Z" fill="#C2AC96"/>
<path d="M316.431 210.333C316.431 210.333 377.958 208.827 401.946 226.567C425.933 244.327 506.054 291.934 506.054 291.934L492.047 315.065C492.047 315.065 437.988 301.058 410.094 288.212C382.2 275.365 354.244 262.54 354.244 262.54L294.109 318.603L316.431 210.333Z" fill="#2D4446"/>
<path d="M498.481 288.788C493.056 296.143 488.696 304.269 483.376 311.726C482.868 312.436 484.056 313.103 484.564 312.393C489.884 304.936 494.224 296.83 499.67 289.455C500.198 288.744 499.01 288.077 498.481 288.788Z" fill="#527676"/>
<path d="M406.112 270.473C419.062 278.099 431.87 286.038 445.305 292.83C458.531 299.521 472.38 304.736 486.725 308.433C487.576 308.649 487.93 307.32 487.079 307.104C472.61 303.367 458.678 298.092 445.368 291.319C432.161 284.606 419.54 276.79 406.779 269.285C406.028 268.84 405.361 270.028 406.112 270.473Z" fill="#527676"/>
<path d="M247.853 122.457C247.853 122.457 252.087 177.534 280.192 192.24C301.859 203.576 344.083 164.842 352.97 170.371C361.857 175.92 365.524 179.388 360.832 187.478C356.141 195.568 299.872 245.269 269.252 231.197C238.631 217.104 229.359 147.24 247.853 122.457Z" fill="#A5410F"/>
<path d="M286.301 251.471C245.802 320.181 217.396 335.539 203.747 322.026C167.77 286.386 161.532 231.459 161.874 204.498C161.912 201.126 161.739 197.507 161.399 193.705C160.91 188.105 160.086 182.158 159.22 176.17C155.939 153.664 159.345 136.075 161.545 130.439C165.186 121.081 177.319 118.746 184.155 116.337C188.376 114.833 192.856 114.152 197.348 114.34L223.471 115.439C223.471 115.439 242.396 116.593 247.025 119.303C251.654 122.013 255.313 135.743 264.41 147.703C273.508 159.663 276.552 172.304 270.627 187.113C265.462 199.988 266.122 195.242 267.384 215.355C268.935 240.015 291.196 243.151 286.301 251.471Z" fill="white"/>
<path d="M182.627 101.09L192.154 87.9287L187.148 103.47C199.512 109.077 220.716 115.145 241.287 115.655C242.88 115.696 243.46 115.688 245.736 115.741C246.129 115.756 246.52 115.585 246.52 115.585L249.355 103.238L249.765 115.376C252.325 114.97 256.706 114.601 259.118 113.927C259.118 113.927 256.308 89.4701 258.436 81.5595C260.586 73.6692 265.753 65.5524 263.713 58.463C261.674 51.3942 250.675 27.2121 222.182 28.3795C222.182 28.3795 206.597 27.8019 199.334 44.7392C188.279 81.2776 176.349 95.6914 176.349 95.6914C176.281 96.8301 180.446 100.395 182.627 101.09Z" fill="#131E07"/>
<path d="M251.963 81.7083C251.963 81.7083 259.258 81.0935 262.54 71.3054C267.872 55.387 259.044 38.8097 239.11 33.3458C212.988 26.1855 208.106 33.9055 201.49 43.5312C194.875 53.157 194.132 68.7451 198.288 77.8957C202.296 86.7587 212.313 91.6726 212.313 91.6726L251.963 81.7083Z" fill="#131E07"/>
<path d="M253.195 77.9676C253.195 77.9676 256.456 78.8963 256.266 83.2437C256.076 87.591 252.585 94.217 248.487 92.5132C244.388 90.8301 253.195 77.9676 253.195 77.9676Z" fill="#B05935"/>
<path d="M245.909 93.1056C245.274 95.1624 246.441 97.3398 248.498 97.9744C250.555 98.6089 252.732 97.4419 253.367 95.3851C254.002 93.3284 252.834 91.1509 250.778 90.5164C248.7 89.8821 246.523 91.0285 245.909 93.1056Z" fill="white"/>
<path d="M197.893 113.34C197.893 113.34 201.529 125.331 213.544 129.536C228.8 134.876 231.9 128.463 231.9 128.463C231.663 126.211 231.675 124.018 231.934 121.718C232.026 120.848 232.159 119.956 232.333 119.044C232.775 116.555 233.484 113.877 234.415 110.803C234.633 110.076 234.872 109.328 235.11 108.559L235.129 108.476C224.763 103.774 216.814 97.2186 212.305 88.0106L210.861 86.7266L209.897 85.8499L209.574 86.4541L209.395 88.5047C208.531 98.1569 204.845 105.613 197.893 113.34Z" fill="#E8A36F"/>
<path d="M218.208 97.8206C219.484 103.451 223.013 113.665 232.333 119.044C232.775 116.555 233.484 113.877 234.416 110.803C234.633 110.076 234.872 109.328 235.11 108.559C234.882 108.541 234.675 108.524 234.447 108.485C228.437 107.717 222.607 103.41 218.208 97.8206Z" fill="#131E07"/>
<path d="M199.764 67.5729C198.249 73.3859 201.299 81.8065 208.838 84.002L208.88 84.0221L209.046 84.0613C209.072 84.4333 209.138 84.7842 209.206 85.1763C209.229 85.3415 209.251 85.5067 209.295 85.6717C209.295 85.6923 209.295 85.6923 209.316 85.7127C211.472 96.8348 224.012 106.349 231.572 108.544C234.272 109.336 236.256 109.206 236.877 109.218C245.405 109.58 249.775 99.0738 250.693 90.4139C250.821 89.1502 250.888 87.9287 250.873 86.7911C250.871 86.7083 250.87 86.6256 250.869 86.5635C250.869 86.5635 256.64 75.6044 258.601 70.6957C262.404 61.149 259.375 49.6662 238.274 42.0043C217.173 34.3631 208.459 46.4167 205.074 53.1443C204.51 54.269 202.888 61.3867 203.776 62.8437C201.445 63.3507 200.276 65.6214 199.764 67.5729Z" fill="#E8A36F"/>
<path d="M236.703 80.7336C236.371 80.6553 236.119 80.369 236.093 80.0176C236.041 79.2321 235.687 77.4989 234.855 77.1584C233.669 76.657 232.045 77.4235 232.024 77.4445C231.634 77.6359 231.156 77.4768 230.964 77.0863C230.773 76.6957 230.932 76.2178 231.323 76.0263C231.405 75.9838 233.604 74.9199 235.477 75.7018C237.433 76.5239 237.66 79.5829 237.665 79.9345C237.691 80.3687 237.365 80.7454 236.91 80.7722C236.848 80.773 236.765 80.7535 236.703 80.7336Z" fill="#131E07"/>
<path d="M244.721 83.2123C244.638 83.1927 244.576 83.1729 244.513 83.1323C244.138 82.9098 244.008 82.4357 244.23 82.0603C244.372 81.8101 245.667 79.6824 247.407 79.804C249.022 79.9272 250.18 81.4014 250.306 81.5652C250.559 81.9135 250.504 82.4108 250.135 82.664C249.786 82.917 249.289 82.8615 249.036 82.5132C248.805 82.2267 248.07 81.4296 247.304 81.3778C246.724 81.3442 245.909 82.3068 245.606 82.8488C245.403 83.1411 245.053 83.2906 244.721 83.2123Z" fill="#131E07"/>
<path d="M235.383 39.3328C219.487 34.1458 204.377 49.0159 202.389 55.1041C200.423 61.1921 203.776 62.8643 203.776 62.8643C208.263 64.2732 210.312 67.3697 211.717 70.3713L213.281 74.3639C214.181 76.6689 217.586 76.0648 217.656 73.602C217.712 71.5531 217.774 70.0213 217.753 70.0009C217.269 66.3042 222.883 65.3188 226.404 64.0511C226.383 64.0514 226.383 64.0514 226.404 64.0511C232.519 61.8798 233.345 55.6002 233.345 55.6002C233.042 49.8944 258.778 57.6598 258.065 66.1928C257.282 75.6992 256.918 76.3454 256.918 76.3454C256.918 76.3454 258.777 79.1961 261.167 67.7029C263.537 56.1893 251.258 44.4993 235.383 39.3328Z" fill="#131E07"/>
<path d="M235.096 51.8738C240.261 57.556 246.757 62.1653 254.951 65.3657C250.597 61.5553 247.542 57.4792 245.87 53.1157L235.096 51.8738Z" fill="#131E07"/>
<path d="M201.222 82.2629C200.588 84.3196 201.755 86.4971 203.812 87.1316C205.868 87.7662 208.046 86.5991 208.68 84.5424C209.315 82.4856 208.148 80.3081 206.091 79.6736C204.034 79.039 201.857 80.1854 201.222 82.2629Z" fill="white"/>
<g opacity="0.5">
<g opacity="0.5">
<g opacity="0.5">
<g opacity="0.5">
<g opacity="0.5">
<g opacity="0.5">
<g opacity="0.5">
<g opacity="0.5">
<g opacity="0.5">
<g opacity="0.5">
<g opacity="0.5">
<path opacity="0.5" d="M246.683 87.592C246.467 88.4638 248.2 89.6406 250.673 90.4144C250.801 89.1507 250.867 87.9291 250.852 86.7914C248.614 86.511 246.879 86.7825 246.683 87.592Z" fill="#B05935"/>
</g>
</g>
</g>
</g>
</g>
</g>
</g>
</g>
</g>
</g>
</g>
<path d="M236.04 97.7063C235.063 97.3262 234.659 96.5454 234.617 96.4839C234.49 96.258 234.589 95.9671 234.815 95.8399C235.041 95.7127 235.332 95.8123 235.459 96.0382C235.481 96.0793 236.032 97.0857 237.416 96.9223C237.685 96.8981 237.915 97.0812 237.939 97.3291C237.963 97.5978 237.78 97.8278 237.532 97.8518C236.933 97.9426 236.436 97.8665 236.04 97.7063Z" fill="#B05935"/>
<path d="M237.553 94.8106C237.532 94.7901 237.512 94.7904 237.47 94.791C234.288 93.5301 233.753 90.6408 233.751 90.5166C233.684 90.1244 233.948 89.7485 234.34 89.6812C234.732 89.6139 235.108 89.8778 235.175 90.27C235.197 90.3732 235.598 92.4781 238.011 93.4182C238.031 93.418 238.052 93.4384 238.073 93.4381C240.485 94.3782 242.003 93.3855 242.003 93.3648C242.331 93.1329 242.787 93.2302 243.019 93.5581C243.251 93.8861 243.154 94.3425 242.826 94.5745C242.765 94.6374 240.693 96.0099 237.553 94.8106Z" fill="#B05935"/>
<path d="M240.888 88.9737C241.013 89.0134 241.137 89.0117 241.261 88.9687L244.682 88.0126C244.909 87.9475 245.093 87.7588 245.152 87.5304C245.211 87.3021 245.145 87.0547 244.977 86.8707C243.006 84.8695 242.145 82.3776 242.286 79.024C242.302 78.6514 242.008 78.3243 241.635 78.3086C241.263 78.2929 240.936 78.5869 240.92 78.9595C240.778 82.2718 241.516 84.8481 243.241 86.9767L240.87 87.6291C240.499 87.7375 240.297 88.1126 240.406 88.4629C240.492 88.7514 240.681 88.9144 240.888 88.9737Z" fill="#B05935"/>
<path d="M239.414 68.4288C241.079 69.172 242.561 67.0626 241.282 65.7762C240.611 65.1025 239.631 64.5569 238.202 64.4312C231.988 63.873 228.304 68.4533 228.304 68.4533C228.304 68.4533 234.535 67.1493 237.648 67.8524C238.374 68.0082 238.956 68.228 239.414 68.4288Z" fill="#131E07"/>
<path d="M248.558 71.5132C246.774 71.206 246.698 68.6208 248.494 68.2658C249.422 68.0878 250.541 68.1763 251.812 68.8628C257.293 71.8515 256.399 76.1461 256.399 76.1461C256.399 76.1461 253.338 73.1457 250.364 72.0062C249.657 71.7467 249.076 71.6097 248.558 71.5132Z" fill="#131E07"/>
<g opacity="0.5">
<g opacity="0.5">
<g opacity="0.5">
<g opacity="0.5">
<g opacity="0.5">
<g opacity="0.5">
<g opacity="0.5">
<g opacity="0.5">
<g opacity="0.5">
<g opacity="0.5">
<g opacity="0.5">
<path opacity="0.5" d="M233.232 84.1727C232.997 85.1689 230.331 85.3701 227.28 84.6247C224.228 83.8793 221.975 82.4819 222.21 81.4857C222.445 80.4894 225.111 80.2882 228.163 81.0336C231.193 81.7793 233.467 83.1764 233.232 84.1727Z" fill="#B05935"/>
</g>
</g>
</g>
</g>
</g>
</g>
</g>
</g>
</g>
</g>
</g>
<path d="M208.838 84.0231L208.88 84.0433L209.046 84.0824C209.071 84.4545 209.138 84.8053 209.206 85.1975C209.228 85.3627 209.251 85.5279 209.295 85.6929C209.295 85.7135 209.295 85.7136 209.295 85.7342C210.207 85.8255 211.365 85.7893 212.538 85.3391C213.218 85.0818 213.916 84.6793 214.528 84.0711C214.855 83.7564 214.848 83.2393 214.534 82.9331C214.219 82.6063 213.702 82.5925 213.396 82.907C212.701 83.5783 211.878 83.9204 211.094 84.055C210.557 84.145 210.061 84.1516 209.605 84.1163C209.315 84.0788 209.045 84.041 208.838 84.0231Z" fill="#B05935"/>
<path d="M210.746 79.6746C210.434 79.534 210.243 79.2262 210.259 78.8743C210.638 73.1382 204.748 69.0377 204.686 68.9972C204.31 68.7539 204.22 68.2379 204.464 67.8622C204.707 67.4866 205.223 67.3969 205.599 67.6402C205.87 67.8227 212.343 72.2671 211.895 78.9558C211.86 79.4115 211.471 79.7477 211.036 79.7121C210.933 79.7342 210.829 79.6942 210.746 79.6746Z" fill="#B05935"/>
<path d="M204.722 74.8099C204.639 74.7696 204.534 74.7089 204.471 74.627C204.156 74.3002 204.17 73.7828 204.497 73.4888C204.579 73.4049 206.704 71.4317 209.862 72.3825C210.298 72.5215 210.532 72.9735 210.393 73.3892C210.254 73.8255 209.801 74.0592 209.386 73.9199C207.142 73.2258 205.651 74.6319 205.63 74.6322C205.365 74.9047 205.013 74.9508 204.722 74.8099Z" fill="#B05935"/>
<path d="M210.777 136.131C207.546 134.312 205.351 132.583 205.142 132.421L206.057 131.27C206.183 131.372 218.707 141.28 228.538 138.438C232.886 137.18 236.107 133.599 238.139 127.759L239.531 128.237C237.34 134.555 233.772 138.451 228.929 139.84C222.643 141.662 215.571 138.818 210.777 136.131Z" fill="#C2AC96"/>
<path d="M206.694 155.695L209.91 171.892C209.91 171.892 234.419 168.295 250.751 167.394L246.496 152.473C246.496 152.473 222.814 152.893 206.694 155.695Z" fill="#C2AC96"/>
<path d="M208.599 322.788C208.933 323.032 209.409 323.026 209.736 322.752C210.125 322.416 210.18 321.857 209.843 321.468C185.649 292.911 175.829 254.77 171.848 227.784C167.525 198.526 168.959 175.771 168.976 175.543C169.011 175.046 168.633 174.596 168.115 174.562C167.618 174.527 167.168 174.905 167.134 175.423C167.116 175.651 165.665 198.613 170.01 228.056C172.559 245.359 176.581 261.504 181.968 276.017C188.707 294.195 197.606 309.881 208.411 322.646C208.494 322.707 208.536 322.748 208.599 322.788Z" fill="#C2AC96"/>
<path d="M219.312 276.159L219.333 276.179C219.75 276.463 220.308 276.373 220.613 275.955C231.658 260.333 245.511 251.996 255.178 247.771C265.647 243.203 273.579 242.311 273.662 242.289C274.158 242.241 274.524 241.781 274.476 241.285C274.428 240.789 273.968 240.423 273.472 240.471C273.141 240.496 265.188 241.409 254.452 246.084C244.559 250.416 230.398 258.922 219.129 274.879C218.825 275.296 218.915 275.854 219.312 276.159Z" fill="#C2AC96"/>
<path d="M222.389 246.347C222.66 246.55 223.033 246.587 223.362 246.437C223.547 246.332 242.905 236.597 259.587 237.14C260.084 237.154 260.513 236.755 260.527 236.258C260.541 235.761 260.142 235.332 259.645 235.318C242.488 234.782 223.335 244.41 222.534 244.814C222.082 245.048 221.903 245.588 222.136 246.04C222.179 246.164 222.284 246.266 222.389 246.347Z" fill="#C2AC96"/>
<path d="M280.568 242.031L264.607 250.499C263.05 248.555 261.654 246.298 260.42 243.728C252.739 227.86 250.827 200.929 249.298 174.799C247.527 144.453 233.674 115.695 233.674 115.695C237.361 114.508 240.794 115.952 244.076 116.942C246.486 117.675 248.555 119.241 249.908 121.374C255.338 129.825 268.15 145.749 273.998 159.18C280.615 174.38 271.227 185.553 269.828 196.971C268.802 205.343 275.053 225.658 278.459 235.915C279.709 239.643 280.568 242.031 280.568 242.031Z" fill="#A5410F"/>
<path d="M241.386 121.53C240.708 117.256 236.822 114.412 232.772 114.735C232.362 118.113 231.913 124.76 231.669 128.156C236.733 134.005 242.989 140.789 242.989 140.789C244.032 135.272 242.266 126.979 241.386 121.53Z" fill="#731F07"/>
<path d="M280.568 242.031L264.607 250.499C263.05 248.555 261.654 246.298 260.42 243.728C264.125 242.313 272.418 239.037 278.48 235.915C279.709 239.643 280.568 242.031 280.568 242.031Z" fill="#731F07"/>
<path d="M404.991 287.121L417.643 306.585L440.226 298.194L428.101 279.509L404.991 287.121Z" fill="#E8A36F"/>
<path d="M434.792 283.288L405.433 292.329C405.433 292.329 394.497 283.703 378.776 273.032C361.594 261.386 348.259 257.427 342.53 242.029C342.53 242.029 313.67 319.334 264.95 337.984C234.817 349.518 200.554 319.875 200.554 319.875C210.769 285.458 296.024 195.772 326.132 179.274C327.036 178.786 327.753 178.218 328.472 177.856C329.273 177.432 330.118 177.172 331.026 177.015C331.645 176.924 332.286 176.874 332.948 176.886C334.521 176.927 336.201 177.257 338.01 177.894C369.682 188.642 434.792 283.288 434.792 283.288Z" fill="#2D4446"/>
<path d="M308.975 300.923C323.53 284.757 335.198 266.188 343.432 246.073C343.892 244.929 342.225 243.979 341.764 245.123C333.611 265.092 322.045 283.535 307.612 299.576C306.777 300.497 308.139 301.844 308.975 300.923Z" fill="#131E07"/>
<path d="M341.931 245.244C350.012 255.438 360.014 263.869 371.495 270.005C372.599 270.59 373.549 268.922 372.445 268.337C361.276 262.363 351.443 254.178 343.573 244.25C342.836 243.287 341.173 244.261 341.931 245.244Z" fill="#131E07"/>
<path d="M332.928 176.845C329.992 181.643 328.273 184.563 328.233 184.667C328.01 185.042 327.515 185.173 327.14 184.95C326.785 184.727 326.634 184.233 326.877 183.857C326.938 183.774 328.414 181.23 331.026 176.974C331.625 176.883 332.266 176.833 332.928 176.845Z" fill="#527676"/>
<path d="M398.367 286.879C397.996 286.925 397.641 286.682 397.532 286.311C397.403 285.899 397.645 285.461 398.078 285.331L429.383 276.327C429.795 276.197 430.232 276.44 430.362 276.872C430.492 277.284 430.249 277.722 429.817 277.852L398.512 286.856C398.471 286.857 398.429 286.878 398.367 286.879Z" fill="#527676"/>
<path d="M258.067 332.222C246.435 333.35 235.456 330.766 227.536 327.955C216.312 323.988 208.607 318.733 208.524 318.693C208.169 318.449 208.08 317.954 208.323 317.599C208.567 317.244 209.062 317.155 209.417 317.398C209.501 317.459 217.058 322.592 228.096 326.499C238.24 330.087 253.531 333.338 268.609 328.461C280.536 324.598 297.036 305.406 316.276 272.916C330.884 248.288 342.006 224.514 342.127 224.284C342.268 223.972 342.596 223.802 342.928 223.839C343.259 223.876 343.532 224.121 343.619 224.451C343.662 224.616 347.733 241.256 367.128 255.934C388.07 271.79 402.347 284.343 402.473 284.466C402.808 284.751 402.835 285.247 402.55 285.582C402.265 285.917 401.768 285.944 401.434 285.659C401.287 285.537 387.072 273.004 366.172 257.188C350.08 245.011 344.358 231.785 342.678 226.822C339.76 232.902 329.933 253.018 317.653 273.746C297.927 307.028 281.588 325.949 269.105 329.985C265.397 331.152 261.703 331.863 258.067 332.222Z" fill="#527676"/>
<path d="M236.725 260.182C235.846 260.98 234.926 261.778 233.984 262.536C233.78 262.704 233.575 262.852 233.37 263.02C232.858 263.399 232.346 263.799 231.834 264.178C209.624 280.343 171.59 285.838 171.59 285.838C168.359 282.447 165.205 278.662 163.672 273.903C153.503 242.097 157.03 182.551 156.089 163.241C154.871 138.741 156.023 125.817 168.944 118.961C181.865 112.106 199.659 112.323 199.659 112.323C205.435 120.335 214.799 129.044 214.799 129.044C214.651 130.308 214.524 131.633 214.438 132.979C211.906 169.466 229.497 234.853 235.097 254.494C236.097 258.122 236.725 260.182 236.725 260.182Z" fill="#A5410F"/>
<path d="M205.478 228.636C205.478 228.636 193.572 248.015 172.111 250.495L169.701 245.148C169.701 245.148 185.791 244.706 201.933 224.981L205.478 228.636Z" fill="#731F07"/>
<path d="M236.725 260.182C235.846 260.98 234.926 261.778 233.984 262.535C233.78 262.704 233.575 262.851 233.37 263.02C232.858 263.399 232.346 263.799 231.834 264.178C209.624 280.343 171.59 285.838 171.59 285.838C168.359 282.447 165.76 278.406 163.672 273.903C193.401 270.816 226.681 257.875 235.076 254.473C236.097 258.121 236.725 260.182 236.725 260.182Z" fill="#731F07"/>
<path d="M237.759 260.168C236.818 260.967 235.815 261.766 234.791 262.525C234.566 262.693 234.361 262.841 234.135 263.009C213.663 212.68 208.697 133.697 208.697 133.697L214.397 132.959C211.108 176.282 237.759 260.168 237.759 260.168Z" fill="#731F07"/>
<path d="M200.926 108.044C200.926 108.044 195.283 105.306 188.328 112.764C188.328 112.764 194.544 130.452 214.141 138.548L214.758 129.023C214.758 129.023 204.27 116.709 200.926 108.044Z" fill="#731F07"/>
<path d="M359.298 125.331L356.474 121.417L311.455 124.44L286.035 188.272L289.435 190.295L335.664 181.898L359.298 125.331Z" fill="white"/>
<path d="M356.473 121.417L384.556 117.442L387.256 121.316L359.298 125.331L356.473 121.417Z" fill="white"/>
<path d="M314.739 127.148L288.435 191.385C288.435 191.385 318.006 188.817 335.212 185.214L359.319 125.331L314.739 127.148Z" fill="#A5410F"/>
<path d="M323.283 141.018L321.005 147.027L342.229 146.868L345.394 140.66L323.283 141.018Z" fill="#731F07"/>
<path d="M359.298 125.33L389.755 120.971L362.234 180.88L335.191 185.214L359.298 125.33Z" fill="#731F07"/>
<path d="M381.292 139.394C381.292 139.394 386.588 144.06 384.09 147.549C381.592 151.037 371.459 151.359 367.899 151.22C364.339 151.082 371.018 146.193 374.669 145.399C376.815 144.936 379.482 143.287 379.482 143.287L381.292 139.394Z" fill="#E8A36F"/>
<path d="M376.463 151.148C376.463 151.148 381.91 156.268 378.945 160.404C375.98 164.56 363.965 164.907 359.722 164.757C355.499 164.607 363.362 158.481 367.739 157.864C372.117 157.247 373.247 155.122 373.247 155.122L376.463 151.148Z" fill="#E8A36F"/>
<path d="M374.292 157.403C374.292 157.403 379.11 161.911 376.491 165.587C373.871 169.242 363.262 169.571 359.516 169.435C355.79 169.298 362.731 163.888 366.613 163.34C370.495 162.792 371.484 160.916 371.484 160.916L374.292 157.403Z" fill="#E8A36F"/>
<path d="M380.629 144.016C380.629 144.016 386.077 149.136 383.112 153.272C380.147 157.429 368.132 157.776 363.888 157.626C359.666 157.475 367.528 151.35 371.927 150.732C376.304 150.115 377.434 147.99 377.434 147.99L380.629 144.016Z" fill="#E8A36F"/>
<path d="M195.861 211.884C203.567 215.691 211.789 217.939 220.169 217.993C223.086 218.016 226 217.791 228.87 217.359C259.118 212.837 285.644 185.36 291.268 178.934C297.219 172.151 295.242 158.937 291.112 154.876C283.628 147.549 256.4 169.015 232.4 175.067C215.411 179.349 201.855 157.352 196.713 139.526C187.472 107.542 166.049 122.186 166.049 122.186C140.854 142.508 160.124 194.26 195.861 211.884Z" fill="#A5410F"/>
<path d="M314.888 170.735C314.888 170.735 329.436 171.017 329.441 174.492C329.428 178.154 315.823 177.24 315.823 177.24C315.823 177.24 322.165 179.596 321.856 181.276C321.085 185.465 303.103 183.658 298.646 182.931C294.167 182.205 286.194 183.16 280.603 181.228C276.8 179.913 266.473 167.266 269.44 160.193C270.383 157.966 276.574 155.298 280.125 153.181C283.758 151.043 289.377 148.878 293.07 148.167C295.444 147.721 298.986 144.964 303.511 144.572L299.395 153.937C298.821 154.297 301.104 156.418 301.104 156.418C301.104 156.418 327.985 152.293 330.014 155.451C332.739 159.656 320.965 161.076 315.714 161.373C315.714 161.373 330.776 162.93 332.005 165.107C334.401 169.461 314.888 170.735 314.888 170.735Z" fill="#E8A36F"/>
<path d="M195.861 211.884C203.181 216.234 210.977 219.108 220.169 217.992C223.081 217.643 226 217.79 228.87 217.359C226.368 212.841 221.343 206.764 212.098 205.419C203.765 204.227 198.707 208.122 195.861 211.884Z" fill="#731F07"/>
<path d="M213.142 170.566C215.44 172.273 217.901 173.771 220.523 174.894C234.257 180.813 256.034 164.84 256.956 164.145C257.366 163.85 257.441 163.27 257.146 162.86C256.851 162.45 256.27 162.375 255.861 162.67C255.635 162.839 234.001 178.707 221.245 173.209C202.768 165.243 192.351 138.157 192.244 137.889C192.072 137.415 191.531 137.174 191.057 137.346C190.584 137.518 190.343 138.059 190.515 138.533C190.9 139.521 198.681 159.732 213.142 170.566Z" fill="#731F07"/>
<path d="M187.594 207.878C195.87 214.077 203.658 217.862 210.812 219.132C223.255 221.344 236.874 217.19 246.09 213.322C256.047 209.134 263.183 204.363 263.245 204.321C263.655 204.046 263.771 203.465 263.497 203.055C263.222 202.645 262.641 202.529 262.231 202.803C261.944 202.993 234.179 221.426 211.14 217.327C188.079 213.209 164.121 182.166 163.889 181.838C163.594 181.428 163.013 181.353 162.604 181.669C162.194 181.985 162.119 182.544 162.435 182.954C162.498 183.036 168.625 191.022 177.571 199.405C180.986 202.608 184.334 205.418 187.594 207.878Z" fill="#731F07"/>
<path d="M485.871 331.222C473.729 332.895 454.498 325.849 445.14 329.926C435.781 334.003 425.439 332.631 423.068 325.484C421.689 321.385 418.899 312.32 415.727 305.639C415.535 305.207 415.323 304.796 415.11 304.385C414.834 303.83 414.537 303.275 414.24 302.762C413.838 302.043 413.291 301.389 412.745 300.796C412.388 300.408 412.032 300.04 411.696 299.714C410.291 298.243 409.366 297.159 411.423 296.283C418.972 293.058 430.746 287.046 433.635 288.021C434.695 288.379 435.952 289.583 437.34 291.24C437.634 291.588 437.95 291.977 438.245 292.387C438.939 293.267 439.635 294.251 440.373 295.275C440.626 295.644 440.9 296.034 441.174 296.423C444.486 301.158 447.97 306.449 450.621 308.213C455.527 311.499 463.448 314.455 468.335 314.741C474.401 315.074 489.358 318.101 492.012 318.603C496.907 319.51 498.013 329.529 485.871 331.222Z" fill="white"/>
<path d="M438.244 292.386C429.738 295.19 421.252 297.993 412.745 300.796C412.388 300.408 412.031 300.04 411.696 299.713C420.244 296.889 428.792 294.064 437.339 291.24C437.634 291.608 437.929 291.997 438.244 292.386Z" fill="#C2AC96"/>
<path d="M441.174 296.402C432.821 299.866 424.338 302.938 415.706 305.618C415.514 305.187 415.302 304.776 415.089 304.365C423.639 301.706 432.081 298.676 440.372 295.255C440.626 295.644 440.9 296.034 441.174 296.402Z" fill="#C2AC96"/>
<path d="M131.135 292.855C131.135 292.855 130.982 295.339 130.268 299.217C130.172 299.798 130.036 300.4 129.9 301.043C128.46 307.848 125.386 317.757 118.942 326.346C118.597 326.806 118.231 327.266 117.864 327.726C115.524 330.633 112.767 333.339 109.551 335.678C109.223 335.91 108.895 336.142 108.567 336.374C103.401 339.898 97.0427 342.486 89.2565 343.48C88.7609 343.549 88.2651 343.597 87.7692 343.645C86.2405 343.81 84.6486 343.894 82.9938 343.916C76.3541 344.004 70.5271 342.986 65.3934 341.213C65.0195 341.094 64.6659 340.954 64.3123 340.814C57.2011 338.137 51.4973 333.952 46.9437 329.151C46.5871 328.783 46.2512 328.415 45.9152 328.047C41.6104 323.285 38.395 317.99 36.0116 313.036C35.8624 312.707 35.6925 312.378 35.5436 312.07C31.0488 302.386 29.7401 294.253 29.7401 294.253L131.135 292.896L131.135 292.855Z" fill="#2D4446"/>
<path d="M50.362 293.936C46.7773 301.245 42.3007 308.38 36.0112 312.995C35.862 312.666 35.6921 312.338 35.5431 312.029C41.4631 307.626 45.7378 300.866 49.1416 293.952L50.362 293.936Z" fill="#131E07"/>
<path d="M65.3589 293.735C59.2801 298.636 54.3994 304.949 51.1638 312.068C49.1543 316.502 46.7613 323.195 46.9229 329.089C46.5663 328.721 46.2304 328.354 45.8944 327.986C46.0134 322.957 47.7001 317.597 49.3017 313.603C52.385 305.928 57.3415 299.097 63.6004 293.737L65.3586 293.714L65.3589 293.735Z" fill="#131E07"/>
<path d="M109.55 335.637C109.222 335.869 108.895 336.101 108.567 336.333C105.32 320.943 109.674 304.686 120.275 292.979L121.785 292.959C110.994 304.378 106.491 320.389 109.55 335.637Z" fill="#131E07"/>
<path d="M95.2858 334.876C93.3596 337.798 91.3494 340.639 89.256 343.439C88.7604 343.508 88.2645 343.556 87.7687 343.604C90.7575 339.695 93.5583 335.644 96.1712 331.472C97.6701 329.072 100.354 325.561 99.3201 322.513C98.0069 318.682 92.7126 320.367 90.0156 321.355C79.8862 325.028 72.235 333.012 65.3927 341.152C65.0187 341.033 64.6651 340.893 64.3115 340.752C67.4069 337.07 70.607 333.489 74.1425 330.235C78.1275 326.562 82.553 323.337 87.5305 321.16C90.8625 319.709 96.9524 317.186 99.734 320.976C102.811 325.197 97.4755 331.537 95.2858 334.876Z" fill="#131E07"/>
<path d="M130.268 299.197C130.173 299.778 130.036 300.379 129.9 301.023C123.057 307.631 119.126 316.89 118.942 326.326C118.597 326.786 118.231 327.246 117.864 327.706C117.659 316.992 122.151 306.34 130.268 299.197Z" fill="#131E07"/>
<path d="M109.147 293.149C107.105 295.121 105 297.031 102.852 298.901C97.6374 303.419 92.1697 307.609 86.4494 311.472C83.6813 313.329 80.854 315.395 77.7897 316.76C75.4248 317.826 72.577 318.36 70.3207 316.715C65.5576 313.261 68.0068 306.133 70.039 301.844C71.4878 298.804 73.4158 296.006 75.742 293.596L77.2933 293.575C74.3119 296.49 71.938 299.977 70.335 303.867C69.2132 306.613 68.0785 309.938 68.9661 312.885C70.2225 317.109 74.382 317.198 77.7737 315.56C82.9535 313.049 87.8067 309.323 92.4156 305.889C97.7004 301.949 102.754 297.703 107.534 293.17L109.147 293.149Z" fill="#131E07"/>
<path d="M80.4763 296.428C108.476 296.054 131.156 294.454 131.135 292.854C131.114 291.255 108.398 290.262 80.3988 290.637C52.3993 291.011 29.7185 292.612 29.7399 294.211C29.7613 295.81 52.4768 296.803 80.4763 296.428Z" fill="#131E07"/>
<path d="M104.853 187.076C101.861 190.757 99.8486 204.273 94.065 206.502C90.0929 208.044 87.8851 202.302 95.5441 194.897C100.466 190.134 102.625 184.478 103.531 181.073C102.086 175.135 100.226 169.056 97.8348 163.544C93.4223 167.741 86.3231 173.69 84.238 170.925C81.9631 167.894 88.5155 158.186 92.1728 153.214C90.4016 150.713 88.4486 148.547 86.2948 146.838C82.761 144.03 78.6849 142.45 73.9705 142.637C70.5794 142.765 67.4726 144.048 64.7079 146.154C68.8057 154.002 74.8586 167.265 70.7834 170.381C66.995 173.287 61.3037 162.316 57.7183 154.109C52.9375 161.704 49.7871 172.09 48.5139 182.078C49.4892 183.845 51.1719 185.912 54.0538 187.921C61.6764 193.26 70.8001 204.103 66.3443 206.604C61.8884 209.104 57.1274 202.713 53.6996 197.008C51.9432 194.073 49.9877 191.72 47.8775 190.176C47.8387 191.914 47.841 193.631 47.9249 195.265C49.5232 226.586 80.1362 226.176 80.1362 226.176C80.1362 226.176 110.696 218.692 104.853 187.076ZM66.3464 188.212C63.3056 188.232 58.4102 182.629 56.1136 179.515C53.8166 176.38 55.5877 174.226 57.7676 174.797C57.7882 174.796 57.8299 174.816 57.8506 174.816C60.924 175.685 70.277 188.201 66.3464 188.212ZM92.9496 180.346C92.9703 180.346 93.0114 180.325 93.0321 180.324C95.1959 179.695 96.9941 181.119 96.0177 183.905C94.7219 187.563 92.9621 189.014 90.2342 187.685C88.5265 186.839 89.9005 181.297 92.9496 180.346Z" fill="#7F784B"/>
<path d="M76.2235 179.598C79.0742 193.193 78.4146 207.29 77.5851 221.059C76.6886 236.008 75.3992 250.962 76.179 265.951C76.622 274.323 77.7267 282.667 79.8628 290.789C80.0374 291.47 81.1091 291.166 80.9345 290.485C73.2595 261.128 79.5807 231.046 79.3892 201.278C79.3321 193.914 78.8196 186.535 77.2955 179.314C77.141 178.592 76.0903 178.917 76.2235 179.598Z" fill="#131E07"/>
<path d="M63.0934 226.528C62.8465 231.269 69.1942 243.37 65.8505 248.587C63.54 252.176 58.3853 248.831 60.2103 238.339C61.3818 231.579 59.7728 225.745 58.4875 222.452C53.8214 218.522 48.7224 214.701 43.5509 211.646C42.4518 217.64 40.2343 226.627 36.9314 225.617C33.3168 224.506 32.8709 212.824 32.8915 206.637C29.9821 205.663 27.1398 205.059 24.3661 204.952C19.8536 204.764 15.6277 205.896 11.943 208.821C9.28165 210.926 7.5407 213.783 6.53035 217.127C14.4648 221.035 27.1803 228.188 25.7153 233.111C24.3696 237.68 13.2899 232.181 5.57495 227.67C6.19121 236.62 9.78307 246.854 14.6181 255.685C16.4503 256.55 19.0243 257.199 22.5403 257.131C31.8475 256.944 45.6089 260.319 43.499 264.981C41.3682 269.623 33.765 267.283 27.6274 264.697C24.4858 263.373 21.5174 262.627 18.8899 262.621C19.8815 264.056 20.8929 265.428 21.9443 266.697C41.717 291.051 66.1933 272.663 66.1933 272.663C66.1933 272.663 86.4563 248.621 63.0934 226.528ZM32.6671 250.168C30.2292 251.959 22.9667 250.34 19.2685 249.168C15.5704 247.997 15.7192 245.202 17.8185 244.388C17.8391 244.388 17.8802 244.367 17.9006 244.346C20.9065 243.25 35.8218 247.83 32.6671 250.168ZM49.5019 228.117C49.5223 228.096 49.5427 228.075 49.5628 228.034C50.9252 226.257 53.2225 226.33 54.0881 229.173C55.1928 232.882 54.6433 235.103 51.6507 235.64C49.7725 235.975 47.6123 230.687 49.5019 228.117Z" fill="#7F784B"/>
<path d="M35.516 237.345C42.8028 243.868 50.0311 250.66 55.9491 258.484C60.4352 264.424 63.9361 270.955 67.1086 277.678C69.3869 282.509 71.5623 287.383 73.7995 292.236C74.0976 292.873 75.0416 292.302 74.7435 291.665C71.0999 283.748 67.7023 275.663 63.4624 268.024C59.6893 261.248 55.035 255.103 49.7251 249.444C45.4648 244.908 40.919 240.686 36.2912 236.528C35.768 236.08 34.9923 236.856 35.516 237.345Z" fill="#131E07"/>
<path d="M90.4076 277.987C90.4076 277.987 115.245 295.881 134.527 271.149C135.544 269.852 136.539 268.474 137.492 267.013C134.865 267.069 131.917 267.873 128.791 269.26C122.725 271.969 115.145 274.47 112.932 269.865C110.719 265.261 124.407 261.602 133.716 261.622C137.233 261.617 139.789 260.92 141.598 260.027C146.278 251.11 149.657 240.804 150.096 231.84C142.462 236.493 131.512 242.226 130.065 237.673C128.51 232.77 141.093 225.381 148.941 221.304C147.883 217.967 146.066 215.157 143.37 213.103C139.629 210.257 135.373 209.197 130.867 209.485C128.118 209.646 125.272 210.304 122.389 211.336C122.534 217.52 122.318 229.232 118.734 230.397C115.439 231.476 113.043 222.529 111.826 216.567C106.696 219.718 101.679 223.633 97.0992 227.666C95.8818 230.993 94.3878 236.847 95.6984 243.574C97.7207 254.015 92.6157 257.476 90.2512 253.929C86.8098 248.761 92.8944 236.557 92.5621 231.823C69.6721 254.349 90.4076 277.987 90.4076 277.987ZM138.095 248.716C138.137 248.736 138.158 248.736 138.178 248.757C140.299 249.535 140.502 252.325 136.836 253.574C133.17 254.802 125.953 256.575 123.468 254.829C120.251 252.555 135.102 247.681 138.095 248.716ZM104.204 240.688C101.219 240.21 100.61 238.005 101.636 234.267C102.425 231.422 104.72 231.288 106.129 233.049C106.15 233.069 106.171 233.089 106.192 233.131C108.129 235.649 106.09 240.973 104.204 240.688Z" fill="#7F784B"/>
<path d="M119.563 241.289C112.615 247.754 105.565 254.261 99.5818 261.665C95.1859 267.103 91.6872 273.108 88.6891 279.416C86.4151 284.184 84.308 289.054 82.2006 293.902C81.9196 294.547 82.8786 295.093 83.1596 294.448C86.4916 286.811 89.6979 279.051 93.9048 271.858C97.6059 265.519 102.289 259.912 107.37 254.651C111.574 250.312 115.966 246.178 120.38 242.064C120.891 241.561 120.094 240.806 119.563 241.289Z" fill="#131E07"/>
</g>
<defs>
<clipPath id="clip0_115_48">
<rect width="619.017" height="351.522" fill="white" transform="translate(0 8.88501) rotate(-0.76658)"/>
</clipPath>
</defs>
</svg>
